<?xml version="1.0" encoding="UTF-8"?>
<svg version="1.1" xmlns="http://www.w3.org/2000/svg" width="192" height="192">
<path d="M0 0 C0.9307283 -0.00426498 1.8614566 -0.00852997 2.82038879 -0.01292419 C4.33382622 -0.01224442 4.33382622 -0.01224442 5.87783813 -0.0115509 C6.94997055 -0.01490952 8.02210297 -0.01826813 9.12672424 -0.02172852 C12.66958781 -0.03122448 16.21240404 -0.03318092 19.75527954 -0.03425598 C22.22001159 -0.03746939 24.68474345 -0.04083352 27.1494751 -0.04434204 C32.31593264 -0.05032984 37.48237346 -0.05218229 42.64883423 -0.05158997 C49.26532528 -0.05148834 55.88170904 -0.06514289 62.49817467 -0.08236217 C67.58885184 -0.09348638 72.67950311 -0.09550905 77.77019119 -0.09498024 C80.2094014 -0.09615963 82.64861229 -0.10057909 85.08781052 -0.10831261 C88.50096889 -0.11812122 91.91389468 -0.1152309 95.32705688 -0.10920715 C96.83442162 -0.11763641 96.83442162 -0.11763641 98.37223816 -0.12623596 C106.02669317 -0.0919476 111.8153567 1.19088478 118.66934204 4.75871277 C119.53430298 5.20472839 120.39926392 5.65074402 121.29043579 6.11027527 C121.93109985 6.44800964 122.57176392 6.78574402 123.23184204 7.13371277 C123.23184204 7.79371277 123.23184204 8.45371277 123.23184204 9.13371277 C124.22184204 9.46371277 125.21184204 9.79371277 126.23184204 10.13371277 C126.23184204 10.79371277 126.23184204 11.45371277 126.23184204 12.13371277 C126.78871704 12.19558777 127.34559204 12.25746277 127.91934204 12.32121277 C131.24713422 13.49043705 132.96318036 15.48694081 135.23184204 18.13371277 C135.23184204 19.12371277 135.23184204 20.11371277 135.23184204 21.13371277 C136.22184204 21.46371277 137.21184204 21.79371277 138.23184204 22.13371277 C138.23184204 22.79371277 138.23184204 23.45371277 138.23184204 24.13371277 C138.89184204 24.13371277 139.55184204 24.13371277 140.23184204 24.13371277 C141.21853964 26.02563751 142.19590224 27.92243254 143.16934204 29.82121277 C143.71461548 30.87695496 144.25988892 31.93269714 144.82168579 33.02043152 C146.77402697 37.33072493 147.35575919 41.19736586 147.36555481 45.90187073 C147.37195229 47.29796318 147.37195229 47.29796318 147.378479 48.72225952 C147.37802582 49.7312178 147.37757263 50.74017609 147.37710571 51.77970886 C147.38046432 52.85184128 147.38382294 53.92397369 147.38728333 55.02859497 C147.39677929 58.57145853 147.39873573 62.11427477 147.39981079 65.65715027 C147.4030242 68.12188232 147.40638833 70.58661418 147.40989685 73.05134583 C147.41588465 78.21780337 147.4177371 83.38424419 147.41714478 88.55070496 C147.41704315 95.16719601 147.4306977 101.78357977 147.44791698 108.40004539 C147.45904118 113.49072257 147.46106385 118.58137383 147.46053505 123.67206192 C147.46171444 126.11127212 147.4661339 128.55048301 147.47386742 130.98968124 C147.48367603 134.40283962 147.48078571 137.81576541 147.47476196 141.22892761 C147.48038147 142.23383743 147.48600098 143.23874725 147.49179077 144.27410889 C147.45735458 151.96156491 146.3962269 157.76234085 142.23184204 164.38371277 C141.71621704 165.21386902 141.20059204 166.04402527 140.66934204 166.89933777 C139.53994514 168.65481338 138.38972233 170.39689233 137.23184204 172.13371277 C136.57184204 172.13371277 135.91184204 172.13371277 135.23184204 172.13371277 C135.16996704 172.69058777 135.10809204 173.24746277 135.04434204 173.82121277 C133.87511776 177.14900495 131.878614 178.86505109 129.23184204 181.13371277 C128.24184204 181.13371277 127.25184204 181.13371277 126.23184204 181.13371277 C125.90184204 182.12371277 125.57184204 183.11371277 125.23184204 184.13371277 C122.311044 186.20901664 120.85637473 187.13371277 117.23184204 187.13371277 C117.23184204 187.79371277 117.23184204 188.45371277 117.23184204 189.13371277 C115.25184204 189.46371277 113.27184204 189.79371277 111.23184204 190.13371277 C111.23184204 190.79371277 111.23184204 191.45371277 111.23184204 192.13371277 C71.30184204 192.13371277 31.37184204 192.13371277 -9.76815796 192.13371277 C-9.76815796 191.47371277 -9.76815796 190.81371277 -9.76815796 190.13371277 C-11.74815796 189.80371277 -13.72815796 189.47371277 -15.76815796 189.13371277 C-15.76815796 188.47371277 -15.76815796 187.81371277 -15.76815796 187.13371277 C-16.88190796 186.97902527 -16.88190796 186.97902527 -18.01815796 186.82121277 C-20.96550986 186.08437479 -22.5519887 185.18572135 -24.76815796 183.13371277 C-24.76815796 182.47371277 -24.76815796 181.81371277 -24.76815796 181.13371277 C-25.32503296 181.07183777 -25.88190796 181.00996277 -26.45565796 180.94621277 C-29.78345014 179.77698849 -31.49949628 177.78048473 -33.76815796 175.13371277 C-33.76815796 174.14371277 -33.76815796 173.15371277 -33.76815796 172.13371277 C-34.42815796 172.13371277 -35.08815796 172.13371277 -35.76815796 172.13371277 C-39.76815796 166.83959512 -39.76815796 166.83959512 -39.76815796 163.13371277 C-40.42815796 163.13371277 -41.08815796 163.13371277 -41.76815796 163.13371277 C-42.09815796 161.15371277 -42.42815796 159.17371277 -42.76815796 157.13371277 C-43.42815796 157.13371277 -44.08815796 157.13371277 -44.76815796 157.13371277 C-44.76815796 117.20371277 -44.76815796 77.27371277 -44.76815796 36.13371277 C-44.10815796 36.13371277 -43.44815796 36.13371277 -42.76815796 36.13371277 C-42.27315796 33.16371277 -42.27315796 33.16371277 -41.76815796 30.13371277 C-41.10815796 30.13371277 -40.44815796 30.13371277 -39.76815796 30.13371277 C-39.66503296 29.39121277 -39.56190796 28.64871277 -39.45565796 27.88371277 C-38.71881998 24.93636087 -37.82016654 23.34988203 -35.76815796 21.13371277 C-35.10815796 21.13371277 -34.44815796 21.13371277 -33.76815796 21.13371277 C-33.70628296 20.57683777 -33.64440796 20.01996277 -33.58065796 19.44621277 C-32.41143368 16.11842059 -30.41492992 14.40237445 -27.76815796 12.13371277 C-26.77815796 12.13371277 -25.78815796 12.13371277 -24.76815796 12.13371277 C-24.76815796 11.47371277 -24.76815796 10.81371277 -24.76815796 10.13371277 C-17.35117446 4.21660815 -9.60102869 0.01999105 0 0 Z " fill="#015412" transform="translate(44.768157958984375,-0.1337127685546875)"/>
<path d="M0 0 C3.64256718 1.51033273 4.56541325 3.69775851 6.5625 7.0625 C7.53087981 9.42994066 8.4271369 11.8281348 9.25 14.25 C9.66636719 15.46042969 10.08273438 16.67085937 10.51171875 17.91796875 C11.79987025 21.77284593 12.68377919 24.69423606 12.625 28.75 C12.61597656 29.55824219 12.60695313 30.36648437 12.59765625 31.19921875 C12.58605469 31.81410156 12.57445312 32.42898437 12.5625 33.0625 C13.2225 33.0625 13.8825 33.0625 14.5625 33.0625 C14.5625 41.6425 14.5625 50.2225 14.5625 59.0625 C13.9025 59.0625 13.2425 59.0625 12.5625 59.0625 C12.4696875 60.7640625 12.4696875 60.7640625 12.375 62.5 C11.24072081 71.31008631 5.47543518 77.82106842 -0.4375 84.0625 C-1.076875 84.76375 -1.71625 85.465 -2.375 86.1875 C-10.68869472 93.74540429 -19.01689953 99.51866188 -30.4375 100.0625 C-30.4375 100.7225 -30.4375 101.3825 -30.4375 102.0625 C-33.45839478 102.08966089 -36.47904129 102.10941657 -39.5 102.125 C-40.34755859 102.13337891 -41.19511719 102.14175781 -42.06835938 102.15039062 C-46.9736722 102.16933006 -51.60194755 101.89576345 -56.4375 101.0625 C-56.4375 100.4025 -56.4375 99.7425 -56.4375 99.0625 C-57.7678125 98.69125 -57.7678125 98.69125 -59.125 98.3125 C-62.60910823 96.99774218 -64.77419024 95.64971519 -67.4375 93.0625 C-68.25 90.8125 -68.25 90.8125 -68.4375 89.0625 C-69.0975 89.0625 -69.7575 89.0625 -70.4375 89.0625 C-70.4375 88.4025 -70.4375 87.7425 -70.4375 87.0625 C-71.9225 86.5675 -71.9225 86.5675 -73.4375 86.0625 C-73.4375 85.4025 -73.4375 84.7425 -73.4375 84.0625 C-74.241875 84.866875 -75.04625 85.67125 -75.875 86.5 C-77.0625 87.6875 -78.25 88.875 -79.4375 90.0625 C-79.88379969 93.23910368 -80.25906316 96.41422631 -80.59960938 99.60351562 C-81.22421875 104.84921875 -81.22421875 104.84921875 -83.4375 107.0625 C-86.9375 107.375 -86.9375 107.375 -90.4375 107.0625 C-93.12472685 103.03165972 -93.22636398 99.71407726 -92.4375 95.0625 C-89.88617498 88.60135223 -86.43572773 81.06072773 -81.4375 76.0625 C-81.35036169 74.35477642 -81.33049993 72.64351351 -81.33984375 70.93359375 C-81.34306641 69.89912109 -81.34628906 68.86464844 -81.34960938 67.79882812 C-81.35798828 66.71021484 -81.36636719 65.62160156 -81.375 64.5 C-81.37951172 63.40751953 -81.38402344 62.31503906 -81.38867188 61.18945312 C-81.40050174 58.48041505 -81.41698457 55.77148401 -81.4375 53.0625 C-80.7775 53.0625 -80.1175 53.0625 -79.4375 53.0625 C-79.37691406 52.36382812 -79.31632812 51.66515625 -79.25390625 50.9453125 C-79.17011719 50.03523438 -79.08632812 49.12515625 -79 48.1875 C-78.91878906 47.28257813 -78.83757812 46.37765625 -78.75390625 45.4453125 C-78.4375 43.0625 -78.4375 43.0625 -77.4375 41.0625 C-76.7775 41.0625 -76.1175 41.0625 -75.4375 41.0625 C-75.27314453 40.18078125 -75.27314453 40.18078125 -75.10546875 39.28125 C-73.30568598 33.30302418 -67.64016406 29.03545089 -62.4375 26.0625 C-56.99576871 23.28610648 -51.49086709 22.06302966 -45.5234375 20.80859375 C-42.51002389 20.16189413 -42.51002389 20.16189413 -40.0534668 19.08764648 C-37.52758329 18.09780189 -35.14735597 17.46964367 -32.49609375 16.9140625 C-31.58279297 16.71296875 -30.66949219 16.511875 -29.72851562 16.3046875 C-27.82403649 15.8927673 -25.91774666 15.48913257 -24.00976562 15.09375 C-18.98985188 13.97269506 -15.781444 13.23134266 -12.4375 9.0625 C-11.7775 9.0625 -11.1175 9.0625 -10.4375 9.0625 C-10.4375 8.4025 -10.4375 7.7425 -10.4375 7.0625 C-8.80145804 5.69176214 -7.13071939 4.36194744 -5.4375 3.0625 C-4.9425 2.464375 -4.4475 1.86625 -3.9375 1.25 C-2.4375 0.0625 -2.4375 0.0625 0 0 Z " fill="#EDF2EE" transform="translate(131.4375,39.9375)"/>
<path d="M0 0 C0.65264429 2.01864397 1.29678746 4.04003727 1.9375 6.0625 C2.47697266 7.75052734 2.47697266 7.75052734 3.02734375 9.47265625 C6.34232321 21.49444924 6.2480116 35.91017905 3 48 C2.34 48.99 1.68 49.98 1 51 C0.34 51 -0.32 51 -1 51 C-1.2784375 52.546875 -1.2784375 52.546875 -1.5625 54.125 C-2.91281717 58.93368344 -6.1938317 61.04827764 -10 64 C-10.639375 64.680625 -11.27875 65.36125 -11.9375 66.0625 C-16.15497527 70.0243707 -20.13256696 73 -26 73 C-26 73.66 -26 74.32 -26 75 C-30.69408916 76.19485906 -35.25474788 76.14828209 -40.0625 76.125 C-40.86494141 76.12886719 -41.66738281 76.13273437 -42.49414062 76.13671875 C-43.27080078 76.13542969 -44.04746094 76.13414062 -44.84765625 76.1328125 C-45.54898682 76.13168457 -46.25031738 76.13055664 -46.97290039 76.12939453 C-49.08642259 75.99448344 -50.96560344 75.57473344 -53 75 C-53 74.34 -53 73.68 -53 73 C-53.721875 72.938125 -54.44375 72.87625 -55.1875 72.8125 C-58.91623081 71.7353111 -60.49208967 69.91459849 -63 67 C-63.69595748 65.68171877 -64.36928426 64.35071088 -65 63 C-62.79195441 62.20752336 -60.58357503 61.4159987 -58.375 60.625 C-57.14523438 60.18414062 -55.91546875 59.74328125 -54.6484375 59.2890625 C-52.38034717 58.48770296 -50.10283438 57.71193947 -47.8125 56.9765625 C-40.28980696 54.3645163 -32.64939481 49.64939481 -27 44 C-26.95919217 42.00041636 -26.95745644 39.99954746 -27 38 C-31.73540233 37.4890367 -31.73540233 37.4890367 -35.75 39.5 C-36.1625 39.995 -36.575 40.49 -37 41 C-37.99 41 -38.98 41 -40 41 C-40 41.66 -40 42.32 -40 43 C-42.475 43.495 -42.475 43.495 -45 44 C-45 44.66 -45 45.32 -45 46 C-53.14948413 51.02391727 -60.62526327 52.16252352 -70 53 C-70.08172936 50.4784979 -70.14083373 47.95970083 -70.1875 45.4375 C-70.21263672 44.73302734 -70.23777344 44.02855469 -70.26367188 43.30273438 C-70.37656572 35.13674631 -67.18717841 29.59757694 -61.78515625 23.66796875 C-59.69330952 21.71344237 -57.78643279 20.67549886 -55 20 C-55 19.34 -55 18.68 -55 18 C-48.6221448 16.82706111 -42.49678438 15.70469162 -36 16 C-36 15.34 -36 14.68 -36 14 C-30.06 13.505 -30.06 13.505 -24 13 C-24 12.34 -24 11.68 -24 11 C-22.68 11 -21.36 11 -20 11 C-20 10.34 -20 9.68 -20 9 C-16.04 8.34 -12.08 7.68 -8 7 C-7.67 5.68 -7.34 4.36 -7 3 C-4.44549506 0.61579539 -3.5595477 0 0 0 Z " fill="#055717" transform="translate(131,55)"/>
<path d="M0 0 C0 0.66 0 1.32 0 2 C-1.175625 2.165 -2.35125 2.33 -3.5625 2.5 C-16.02163752 5.33430617 -25.15937823 12.20347475 -33 22 C-33.969375 22.886875 -34.93875 23.77375 -35.9375 24.6875 C-38.62888731 27.70511607 -39.15418781 30.07850713 -40 34 C-40.66 34 -41.32 34 -42 34 C-42 34.99 -42 35.98 -42 37 C-42.66 37 -43.32 37 -44 37 C-44.33 37.99 -44.66 38.98 -45 40 C-44.54177532 36.53058454 -44.10868317 33.32604951 -43 30 C-42.34 30 -41.68 30 -41 30 C-40.896875 29.2575 -40.79375 28.515 -40.6875 27.75 C-39.95066203 24.8026481 -39.05200858 23.21616926 -37 21 C-36.34 21 -35.68 21 -35 21 C-34.938125 20.443125 -34.87625 19.88625 -34.8125 19.3125 C-33.64327572 15.98470782 -31.64677196 14.26866168 -29 12 C-28.01 12 -27.02 12 -26 12 C-26 11.34 -26 10.68 -26 10 C-18.0404123 3.65001782 -10.24889356 -0.23834636 0 0 Z " fill="#0D4F1D" transform="translate(46,0)"/>
<path d="M0 0 C0.66 0 1.32 0 2 0 C2.12825937 9.30796564 -0.89396899 15.35864181 -6 23 C-6.66 23.99 -7.32 24.98 -8 26 C-8.66 26 -9.32 26 -10 26 C-10.0928125 26.8353125 -10.0928125 26.8353125 -10.1875 27.6875 C-11.35672428 31.01529218 -13.35322804 32.73133832 -16 35 C-16.99 35 -17.98 35 -19 35 C-19.33 35.99 -19.66 36.98 -20 38 C-22.92079805 40.07530387 -24.37546731 41 -28 41 C-28 41.66 -28 42.32 -28 43 C-34.28571429 45.42857143 -34.28571429 45.42857143 -38 44 C-37.01 44 -36.02 44 -35 44 C-35 43.34 -35 42.68 -35 42 C-34.01 42 -33.02 42 -32 42 C-32 41.34 -32 40.68 -32 40 C-31.11248047 39.65388672 -31.11248047 39.65388672 -30.20703125 39.30078125 C-25.08810351 37.18807535 -21.7686247 35.15515031 -18 31 C-16.65060165 29.89001104 -15.29602153 28.78630418 -13.9375 27.6875 C-9.1142935 23.52862194 -6.98207897 18.94623691 -5 13 C-4.34 13 -3.68 13 -3 13 C-3 12.01 -3 11.02 -3 10 C-2.34 10 -1.68 10 -1 10 C-0.67 6.7 -0.34 3.4 0 0 Z " fill="#125120" transform="translate(190,146)"/>
<path d="M0 0 C0.33 0.99 0.66 1.98 1 3 C2.65 3.33 4.3 3.66 6 4 C6 4.66 6 5.32 6 6 C6.99 6.33 7.98 6.66 9 7 C9 7.66 9 8.32 9 9 C9.66 9 10.32 9 11 9 C11 9.66 11 10.32 11 11 C15.455 11.99 15.455 11.99 20 13 C20 13.66 20 14.32 20 15 C20.969375 15.12375 21.93875 15.2475 22.9375 15.375 C23.948125 15.58125 24.95875 15.7875 26 16 C26.33 16.66 26.66 17.32 27 18 C19.375 17.125 19.375 17.125 16 16 C16 15.34 16 14.68 16 14 C14.88625 13.8453125 14.88625 13.8453125 13.75 13.6875 C10.8026481 12.95066203 9.21616926 12.05200858 7 10 C7 9.34 7 8.68 7 8 C6.401875 7.896875 5.80375 7.79375 5.1875 7.6875 C2.63994217 6.88683897 1.58475902 6.13942468 0 4 C0 2.68 0 1.36 0 0 Z " fill="#0F4B1D" transform="translate(13,173)"/>
<path d="M0 0 C0 0.66 0 1.32 0 2 C-1.32 2 -2.64 2 -4 2 C-4 2.66 -4 3.32 -4 4 C-5.609375 5.5859375 -5.609375 5.5859375 -7.75 7.375 C-10.06903702 9.33757727 -12.25219284 11.2588295 -14.375 13.4375 C-16 15 -16 15 -18 15 C-18 15.99 -18 16.98 -18 18 C-18.66 18 -19.32 18 -20 18 C-18.49740332 12.65743403 -14.94028273 8.76271634 -11 5 C-8.0625 3.5 -8.0625 3.5 -6 3 C-6 2.34 -6 1.68 -6 1 C-3 0 -3 0 0 0 Z " fill="#478153" transform="translate(82,72)"/>
<path d="M0 0 C1.625 1.375 1.625 1.375 3 3 C3 3.66 3 4.32 3 5 C3.66 5 4.32 5 5 5 C5.33 5.99 5.66 6.98 6 8 C4.0625 7.625 4.0625 7.625 2 7 C1.67 6.34 1.34 5.68 1 5 C-1.16874252 5.50603992 -2.99967627 5.99983813 -5 7 C-5.46751788 9.35599235 -5.46751788 9.35599235 -5.625 12.0625 C-5.69976562 12.98160156 -5.77453125 13.90070313 -5.8515625 14.84765625 C-5.90054688 15.55792969 -5.94953125 16.26820313 -6 17 C-6.66 17 -7.32 17 -8 17 C-7.7896198 6.25148447 -7.7896198 6.25148447 -4.5625 2.3125 C-2 0 -2 0 0 0 Z " fill="#5E8F69" transform="translate(58,124)"/>
<path d="M0 0 C5.78268793 0.45652799 11.25759726 2.68656983 16 6 C16.79296875 8.16796875 16.79296875 8.16796875 17 10 C16.34 10 15.68 10 15 10 C15 9.34 15 8.68 15 8 C10.545 7.01 10.545 7.01 6 6 C6 5.34 6 4.68 6 4 C5.01 4 4.02 4 3 4 C3 3.34 3 2.68 3 2 C2.01 2 1.02 2 0 2 C0 1.34 0 0.68 0 0 Z " fill="#105221" transform="translate(152,1)"/>
<path d="M0 0 C4.2687882 0.4743098 6.31511656 2.80716564 9 6 C9.8125 8.8125 9.8125 8.8125 10 11 C5.48466951 8.67783003 2.98944499 6.01439755 0 2 C0 1.34 0 0.68 0 0 Z " fill="#0F5320" transform="translate(171,12)"/>
<path d="M0 0 C0 0.66 0 1.32 0 2 C-7.86651761 5.52877474 -15.5741044 8.16243766 -24 10 C-24 9.34 -24 8.68 -24 8 C-21.79195441 7.20752336 -19.58357503 6.4159987 -17.375 5.625 C-16.14523438 5.18414062 -14.91546875 4.74328125 -13.6484375 4.2890625 C-11.32827132 3.46930357 -9.00069244 2.67001788 -6.6640625 1.8984375 C-1.03478261 0 -1.03478261 0 0 0 Z " fill="#488154" transform="translate(90,110)"/>
<path d="M0 0 C0.66 0 1.32 0 2 0 C5.17692157 5.24882694 5.65697965 10.01488629 6 16 C5.34 16 4.68 16 4 16 C3.67 13.03 3.34 10.06 3 7 C2.34 7 1.68 7 1 7 C0.67 4.69 0.34 2.38 0 0 Z " fill="#175927" transform="translate(186,30)"/>
<path d="M0 0 C0.66 0 1.32 0 2 0 C2.33 1.98 2.66 3.96 3 6 C3.66 6 4.32 6 5 6 C5.33 7.65 5.66 9.3 6 11 C6.66 11 7.32 11 8 11 C8 11.66 8 12.32 8 13 C7.01 13 6.02 13 5 13 C1.52110606 8.80486318 0.43142926 5.39286575 0 0 Z " fill="#0D4D1D" transform="translate(4,159)"/>
<path d="M0 0 C0.66 0.33 1.32 0.66 2 1 C1.67 2.65 1.34 4.3 1 6 C0.34 6 -0.32 6 -1 6 C-1 11.28 -1 16.56 -1 22 C-1.33 22 -1.66 22 -2 22 C-2 15.73 -2 9.46 -2 3 C-1.34 3 -0.68 3 0 3 C0 2.01 0 1.02 0 0 Z " fill="#488255" transform="translate(51,87)"/>
<path d="M0 0 C0.99 0.33 1.98 0.66 3 1 C1.7260411 3.03833424 0.38938077 5.03852126 -1 7 C-1.66 7 -2.32 7 -3 7 C-3.12375 7.639375 -3.2475 8.27875 -3.375 8.9375 C-3.58125 9.618125 -3.7875 10.29875 -4 11 C-4.99 11.495 -4.99 11.495 -6 12 C-5.54300722 6.97307937 -3.00758252 3.85103739 0 0 Z " fill="#0B471A" transform="translate(183,165)"/>
<path d="M0 0 C0.66 0 1.32 0 2 0 C4.21538462 5.41538462 4.21538462 5.41538462 3.125 8.375 C2.75375 8.91125 2.3825 9.4475 2 10 C0.68373308 6.38026598 0 3.90432869 0 0 Z " fill="#0E4F1C" transform="translate(183,24)"/>
</svg>
